<svg xmlns="http://www.w3.org/2000/svg" viewBox="0 0 341.8 89.8"><style type="text/css">  
	.logo-icon{fill:#EB3226;}
	.logo-text{fill:#11133C;}
</style><path class="logo-icon" d="M26.7 66.8L43.2 60l30.3 12.4v13.5L26.7 66.8zM6.3 73.1l0-12.7 15.6 6.4L6.3 73.1zM36.5 31.8c3 1.2 10.8 4.4 13.7 5.6h0c0.9 0.3 1.2 1.7 0 2.3 -12.6 5.1-31.6 12.9-44 18V44.2L36.5 31.8zM6.3 17.4l0-13.5L53 23l-16.5 6.7L6.3 17.4zM73.5 29.4c-3-1.2-12.4-5.1-15.6-6.4l15.6-6.4V29.4zM43.2 58l-13.7-5.6c-0.4-0.2-0.7-0.5-0.7-0.9 0-0.1 0-0.2 0-0.2 0-0.2 0-0.8 0.7-1.1 0.1 0 21.4-8.8 21.5-8.8 4.7-1.9 18-7.4 22.5-9.2v13.5L43.2 58zM28.8 54.1L40.8 59l-16.5 6.7c-2.8-1.1-13.9-5.7-16.5-6.7l19.1-7.8c0 0 0 0.1 0 0.1 0 0.6 0.2 1.2 0.5 1.7 0.1 0.1 0.2 0.2 0.3 0.4C28 53.7 28.4 54 28.8 54.1M51 35.7c-3-1.2-9-3.7-12-4.9L55.5 24c2.8 1.2 13.5 5.5 16.5 6.7 -2.2 0.9-17.3 7.1-19.1 7.8 0 0 0-0.1 0-0.1C52.9 37.3 52.1 36.1 51 35.7M4.4 75.9l19.9-8.1 51.1 20.9 0-17.5L45.7 59l29.7-12.1 0-33L55.5 22 4.4 1.2v17.5l29.7 12.1L4.4 42.9V75.9z"></path><polygon class="logo-text" points="109.1 60.2 106 60.2 106 29.6 110.2 29.6 120 52.4 129.8 29.6 134 29.6 134 60.2 130.9 60.2 130.9 34.3 121.3 56.7 118.5 56.7 109.1 34.3 "></polygon><path class="logo-text" d="M156.3 49.3l-4.5-12.6 -4.5 12.6H156.3zM160.2 60.2l-2.9-8h-11l-2.9 8h-3.2l10-27.1h3.4l10 27.1H160.2z"></path><polygon class="logo-text" points="172.7 60.2 172.7 50.6 163.1 33.1 166.4 33.1 174.3 47.4 182.2 33.1 185.5 33.1 175.8 50.6 175.8 60.2 "></polygon><path class="logo-text" d="M198.1 60.2c-4.1 0-6-1.9-6-6v-3.7l3.1 0.9v3.1c0 2.3 0.9 3.1 3.1 3.1h8.6c2.3 0 3.1-0.9 3.1-3.1v-4.1c0-2.4-1.1-3.1-3.1-3.5l-8.5-1.9c-3.6-0.8-6.2-1.8-6.2-6.2v-3.2c0-4.1 1.9-6 6-6h8.4c4.1 0 6 1.9 6 6v2.7l-3.1-0.9v-2.1c0-2.3-0.9-3.1-3.1-3.1h-8.1c-2.3 0-3.1 0.9-3.1 3.1v3.1c0 2.4 1.1 3.1 3.1 3.5l8.5 1.9c3.6 0.8 6.2 1.8 6.2 6.2v4.1c0 4.1-1.9 6-6 6H198.1z"></path><polygon class="logo-text" points="226.6 60.2 226.6 35.9 218.4 35.9 218.4 33.1 237.9 33.1 237.9 35.9 229.7 35.9 229.7 60.2 "></polygon><path class="logo-text" d="M257.3 46.3c1.9 0 2.6-0.7 2.6-2.6v-5.2c0-1.9-0.7-2.6-2.6-2.6h-10v10.4H257.3zM260.5 60.2l-6-11.1h-7.2v11.1h-3.1V33.1h13.2c3.7 0 5.5 1.8 5.5 5.5v5c0 3.5-1.6 5.4-5 5.5l6 11.1H260.5z"></path><polygon class="logo-text" points="270 60.2 270 33.1 287.3 33.1 287.3 35.9 273.1 35.9 273.1 44.9 285.1 44.9 285.1 47.8 273.1 47.8 273.1 57.4 287.3 57.4 287.3 60.2 "></polygon><polygon class="logo-text" points="294.3 60.2 294.3 33.1 311.6 33.1 311.6 35.9 297.4 35.9 297.4 44.9 309.4 44.9 309.4 47.8 297.4 47.8 297.4 57.4 311.6 57.4 311.6 60.2 "></polygon><polygon class="logo-text" points="326.1 60.2 326.1 35.9 317.9 35.9 317.9 33.1 337.5 33.1 337.5 35.9 329.2 35.9 329.2 60.2 "></polygon></svg>